<?xml version="1.0" encoding="iso-8859-1"?>
<!-- Generator: Adobe Illustrator 19.0.0, SVG Export Plug-In . SVG Version: 6.00 Build 0)  -->
<svg version="1.1" id="Capa_1" xmlns="http://www.w3.org/2000/svg" xmlns:xlink="http://www.w3.org/1999/xlink" x="0px" y="0px"
	 viewBox="0 0 512 512" style="enable-background:new 0 0 512 512;" xml:space="preserve">
<path style="fill:#54E360;" d="M323.582,295.437c0-30.018-24.421-54.438-54.437-54.438h-26.292
	c-13.474,0-24.436-10.961-24.436-24.434c0-13.475,10.962-24.437,24.436-24.437h52.583c8.284,0,15-6.716,15-15
	c0-8.284-6.716-15-15-15h-24.437V137.69c0-8.284-6.716-15-15.001-15c-8.284,0-15,6.716-15,15v24.484
	c-29.159,0.983-52.58,24.995-52.58,54.389c0,30.016,24.42,54.434,54.435,54.434h26.292c13.476,0,24.438,10.963,24.438,24.439
	c0,13.474-10.962,24.435-24.438,24.435h-52.581c-8.284,0-15,6.716-15,15c0,8.284,6.716,15,15,15h24.435v24.437
	c0,8.284,6.716,15,15,15c8.285,0,15.001-6.716,15.001-15v-24.483C300.159,348.842,323.582,324.831,323.582,295.437z"/>
<g>
	<path style="fill:#0065A3;" d="M505.331,177.95c-6.886-4.602-16.202-2.749-20.805,4.138l-20.695,30.972
		c-8.42-41.122-28.882-78.842-59.51-108.787c-39.874-38.983-92.549-60.451-148.324-60.451c-84.363,0-160.71,49.97-194.503,127.303
		c-3.317,7.591,0.148,16.434,7.739,19.751c7.593,3.316,16.434-0.149,19.752-7.739C118.003,116.729,183.558,73.82,255.999,73.82
		c89.499,0,165.348,66.392,179.719,152.472l-39.786-26.583c-6.887-4.6-16.203-2.749-20.805,4.14
		c-4.603,6.888-2.75,16.203,4.139,20.806l65.581,43.818c2.561,1.71,5.455,2.529,8.319,2.529c4.841,0,9.594-2.341,12.485-6.668
		l43.818-65.577C514.073,191.867,512.22,182.552,505.331,177.95z"/>
	<path style="fill:#0065A3;" d="M442.763,321.127c-7.591-3.321-16.435,0.147-19.751,7.739
		c-29.018,66.405-94.573,109.313-167.013,109.313c-89.499,0-165.349-66.394-179.718-152.473l39.785,26.584
		c6.887,4.603,16.203,2.75,20.807-4.138c4.602-6.889,2.749-16.203-4.139-20.806L67.15,243.527c-3.308-2.21-7.358-3.017-11.26-2.24
		c-3.902,0.776-7.335,3.071-9.546,6.379l-43.816,65.58c-4.602,6.889-2.749,16.203,4.14,20.806c2.561,1.711,5.455,2.529,8.319,2.529
		c4.841,0,9.595-2.341,12.486-6.669l20.692-30.973c8.42,41.121,28.882,78.841,59.51,108.787
		c39.875,38.983,92.549,60.451,148.322,60.451c84.365,0,160.711-49.969,194.503-127.302
		C453.818,333.288,450.354,324.445,442.763,321.127z"/>
</g>
<g>
	<path style="fill:#00CC71;" d="M295.436,192.128c8.284,0,15-6.716,15-15c0-8.284-6.716-15-15-15h-24.437V137.69
		c0-8.284-6.715-14.999-15-15v69.436h39.437V192.128z"/>
	<path style="fill:#00CC71;" d="M269.145,270.998c13.476,0,24.438,10.963,24.438,24.439c0,13.474-10.962,24.435-24.438,24.435H256
		v69.436c8.285-0.001,15-6.716,15-15v-24.483c29.161-0.982,52.583-24.994,52.583-54.388c0-30.018-24.421-54.438-54.437-54.438H256
		v30H269.145z"/>
</g>
<g>
	<path style="fill:#003E67;" d="M505.331,177.95c-6.886-4.602-16.202-2.749-20.805,4.138l-20.695,30.972
		c-8.42-41.122-28.882-78.842-59.51-108.787c-39.874-38.983-92.548-60.451-148.323-60.451v30
		c89.499,0.001,165.347,66.392,179.718,152.472l-39.786-26.583c-6.887-4.6-16.203-2.749-20.805,4.14
		c-4.603,6.888-2.75,16.203,4.139,20.806l65.581,43.818c2.561,1.71,5.455,2.529,8.319,2.529c4.841,0,9.594-2.341,12.485-6.668
		l43.818-65.577C514.073,191.867,512.22,182.552,505.331,177.95z"/>
	<path style="fill:#003E67;" d="M450.502,340.878c3.316-7.591-0.148-16.434-7.739-19.751c-7.591-3.321-16.435,0.147-19.751,7.739
		C393.994,395.271,328.44,438.179,256,438.179v30C340.364,468.179,416.71,418.211,450.502,340.878z"/>
</g>
<g>
</g>
<g>
</g>
<g>
</g>
<g>
</g>
<g>
</g>
<g>
</g>
<g>
</g>
<g>
</g>
<g>
</g>
<g>
</g>
<g>
</g>
<g>
</g>
<g>
</g>
<g>
</g>
<g>
</g>
</svg>
